<svg width="152" height="34" viewBox="0 0 152 34" fill="none" xmlns="http://www.w3.org/2000/svg">
<path d="M38.472 18.4162H33.736C33.4587 18.4162 33.32 18.2776 33.32 18.0002V15.3442C33.32 15.0669 33.4587 14.9282 33.736 14.9282H45.288C46.76 14.9282 47.496 15.6429 47.496 17.0722V17.8722C47.496 18.2349 47.3253 18.4162 46.984 18.4162H42.216V32.3042C42.216 32.5816 42.0773 32.7202 41.8 32.7202H38.888C38.6107 32.7202 38.472 32.5816 38.472 32.3042V18.4162Z" fill="black"/>
<path d="M53.1885 26.8322V32.3042C53.1885 32.5816 53.0498 32.7202 52.7725 32.7202H49.8605C49.5832 32.7202 49.4445 32.5816 49.4445 32.3042V15.3442C49.4445 15.0669 49.5832 14.9282 49.8605 14.9282H56.0365C58.4472 14.9282 60.1752 15.4722 61.2205 16.5602C62.2872 17.6482 62.8205 19.0562 62.8205 20.7842C62.8205 22.0856 62.5112 23.2162 61.8925 24.1762C61.2952 25.1362 60.4312 25.8509 59.3005 26.3202L62.9165 32.3042C62.9805 32.3896 62.9912 32.4856 62.9485 32.5922C62.9058 32.6776 62.8205 32.7202 62.6925 32.7202H59.3965C59.0125 32.7202 58.7458 32.5816 58.5965 32.3042L55.6205 26.8322H53.1885ZM53.1885 23.3762H56.3885C56.7938 23.3762 57.1992 23.3122 57.6045 23.1842C58.0312 23.0562 58.3832 22.8109 58.6605 22.4482C58.9378 22.0642 59.0765 21.5202 59.0765 20.8162C59.0765 20.0056 58.8205 19.4082 58.3085 19.0242C57.8178 18.6189 57.1778 18.4162 56.3885 18.4162H53.1885V23.3762Z" fill="black"/>
<path d="M65.507 32.3042V15.3442C65.507 15.0669 65.6457 14.9282 65.923 14.9282H66.243C67.2457 14.9282 67.9923 15.1736 68.483 15.6642C68.995 16.1336 69.251 16.9656 69.251 18.1602V32.3042C69.251 32.5816 69.1123 32.7202 68.835 32.7202H65.923C65.6457 32.7202 65.507 32.5816 65.507 32.3042Z" fill="black"/>
<path d="M76.251 26.8322V32.3042C76.251 32.5816 76.1123 32.7202 75.835 32.7202H72.923C72.6457 32.7202 72.507 32.5816 72.507 32.3042V15.3442C72.507 15.0669 72.6457 14.9282 72.923 14.9282H79.131C81.5417 14.9282 83.2697 15.4722 84.315 16.5602C85.3603 17.6482 85.883 19.0562 85.883 20.7842C85.883 21.9576 85.627 23.0029 85.115 23.9202C84.6243 24.8162 83.9097 25.5309 82.971 26.0642C82.0537 26.5762 80.9443 26.8322 79.643 26.8322H76.251ZM76.251 23.3762H79.451C79.8563 23.3762 80.2617 23.3122 80.667 23.1842C81.0937 23.0562 81.4457 22.8109 81.723 22.4482C82.0003 22.0642 82.139 21.5202 82.139 20.8162C82.139 20.0056 81.883 19.4082 81.371 19.0242C80.8803 18.6189 80.2403 18.4162 79.451 18.4162H76.251V23.3762Z" fill="black"/>
<path d="M97.1842 26.9922L100.256 15.3442C100.32 15.0669 100.48 14.9282 100.736 14.9282H103.328C104.054 14.9282 104.64 15.1309 105.088 15.5362C105.558 15.9416 105.803 16.4642 105.824 17.1042L106.656 32.3042C106.656 32.5816 106.55 32.7202 106.336 32.7202H103.36C103.104 32.7202 102.976 32.5816 102.976 32.3042L102.336 20.3362L99.1042 32.3042C99.0402 32.5816 98.8696 32.7202 98.5922 32.7202H95.7122C95.4989 32.7202 95.3496 32.5816 95.2642 32.3042L92.0962 20.3042L91.4562 32.3042C91.4562 32.5816 91.3389 32.7202 91.1042 32.7202H88.0962C87.8616 32.7202 87.7442 32.5816 87.7442 32.3042L88.7362 15.3442C88.7362 15.0669 88.8642 14.9282 89.1202 14.9282H91.6482C92.3736 14.9282 92.9816 15.0349 93.4722 15.2482C93.9842 15.4616 94.3256 15.9096 94.4962 16.5922L97.1842 26.9922Z" fill="black"/>
<path d="M113.03 28.6242L111.782 32.3042C111.697 32.5816 111.537 32.7202 111.302 32.7202H108.294C108.166 32.7202 108.081 32.6776 108.038 32.5922C107.995 32.4856 107.985 32.3896 108.006 32.3042L113.958 15.2802C114.043 15.0456 114.203 14.9282 114.438 14.9282H115.846C116.742 14.9282 117.435 15.1202 117.926 15.5042C118.438 15.8882 118.897 16.6562 119.302 17.8082L124.486 32.3042C124.529 32.3896 124.518 32.4856 124.454 32.5922C124.411 32.6776 124.315 32.7202 124.166 32.7202H121.094C120.795 32.7202 120.593 32.5816 120.486 32.3042L119.238 28.6242H113.03ZM114.15 25.4242H118.15L116.134 19.4402L114.15 25.4242Z" fill="black"/>
<path d="M129.066 18.4162H124.33C124.052 18.4162 123.914 18.2776 123.914 18.0002V15.3442C123.914 15.0669 124.052 14.9282 124.33 14.9282H135.882C137.354 14.9282 138.09 15.6429 138.09 17.0722V17.8722C138.09 18.2349 137.919 18.4162 137.578 18.4162H132.81V32.3042C132.81 32.5816 132.671 32.7202 132.394 32.7202H129.482C129.204 32.7202 129.066 32.5816 129.066 32.3042V18.4162Z" fill="black"/>
<path d="M143.782 29.2642H148.998C150.492 29.2642 151.238 29.9682 151.238 31.3762V32.1762C151.238 32.5389 151.068 32.7202 150.726 32.7202H140.454C140.177 32.7202 140.038 32.5816 140.038 32.3042V15.3442C140.038 15.0669 140.177 14.9282 140.454 14.9282H148.742C150.236 14.9282 150.982 15.6429 150.982 17.0722V17.8722C150.982 18.2349 150.812 18.4162 150.47 18.4162H143.782V22.0322H148.102C149.596 22.0322 150.342 22.7469 150.342 24.1762V24.9762C150.342 25.3176 150.172 25.4882 149.83 25.4882H143.782V29.2642Z" fill="black"/>
<path fill-rule="evenodd" clip-rule="evenodd" d="M23.1281 32.4728C24.3591 27.9963 26.8872 16.3909 22.8936 7.82668C21.2108 4.21779 15.2394 -1.78497 7.42253 1.86011C-0.394372 5.5052 0.365703 13.938 2.04856 17.5469C6.04214 26.1112 16.5575 31.6343 20.7778 33.5687C21.7612 34.0194 22.8413 33.5158 23.1281 32.4728ZM14.1844 16.361C16.4369 15.3107 17.4114 12.6333 16.361 10.3809C15.3107 8.12844 12.6333 7.15394 10.3809 8.20427C8.12843 9.25459 7.15393 11.932 8.20426 14.1844C9.25458 16.4369 11.932 17.4114 14.1844 16.361Z" fill="#EDAE49"/>
</svg>
